<svg class="cr-map svg-content"
   xmlns="" baseprofile="tiny" fill="#101C2D" stroke="#0671eb" stroke-linecap="round" stroke-linejoin="round" stroke-width="3" version="1.2" viewbox="">
 <g>
  <title>Cartago</title>
  <path text='Cartago' class='provincia cartago' stroke-width="3" d="m586.37925,415.21495l-23,-14.1l-0.6,-0.2l-2.1,-1l-1.9,-1.6l-5.6,-5.9l-2.6,0.8l-0.9,1l-1.1,2l-1.1,1.1l-1.7,0.6l-1.4,0.1l-2.5,-0.2l-1.8,0.5l-3,1.5l-0.8,-0.4l-0.5,-2.9l-0.7,-2.4l-0.2,-0.5l-0.6,-0.6l-1,-0.6l-3.3,-1.1l-1.7,-1.2l-2.4,-3.4l-4.2,0.5l-1.1,0l-4.8,-1l-0.6,-0.2l-0.6,-0.5l-0.8,-0.9l-1.1,-1.7l-0.9,-1.8l-0.6,-1.6l-1.5,-3.1l-1.6,-2.8l-1,-0.8l-0.9,-0.4l-1.8,-0.2l-0.9,0.2l-1.6,0.8l-1.1,-0.3l-4.5,-2.2l-2.7,-1l-0.6,-0.1l-1.2,-1.1l-4.8,-6.3l-2,-3.3l-0.2,-1l-1.2,-1l-4.2,-1.4l-1.5,-2.7l-0.8,-2.2l-0.5,-2.1l-1.8,-0.3l-8.1,1.8l-1.3,-0.3l-1.3,-0.2l-0.6,0.1l-1.8,0.5l-2.6,1l-1.3,0l-0.5,-0.2l-0.5,-1l-0.2,-1.3l0.2,-1l0.7,-1.4l1.4,-2.4l3.9,-3.5l2.7,-1.9l1.6,-1.7l6.3,-10.3l-4.3,-1.9l-1.2,-0.8l0.3,-1.8l5.8,-9.6l10.1,-3.6l0.2,-0.1l5.8,-0.1l2,0.3l1.1,0.5l1.6,-0.4l2.7,-3.1l2.7,-0.3l1.2,-0.4l0.8,-0.7l0.7,-0.9l0.5,-1.8l-1,-4.9l-0.4,-5.8l-0.6,-2l-0.8,-1.2l-4.4,-5l-1.5,-0.9l-1.8,-1.3l-1.9,-1.7l-0.9,-1l-0.5,-0.9l-3,-10.5l27.4,12.4l9.6,4.5l13.2,6.3l21.5,10.1l5.7,2.1l31.6,0.2l23.2,0.5l4.4,0.9l-0.5,0.9l-2.7,4l-1.7,3.6l-0.7,3.9l0.3,4.9l2.5,7.9l0.6,4.1l-1.5,3.8l-9.3,11.7l-6.6,8.1l-1.8,2.7l-4.9,12.6l-12.7,15.2l-3,6.3l-0.8,6.8l0.5,2.1l0.5,2.7l1.3,3l1.6,2.1l1.4,2.9l0.7,2.4z" id="CRI1327" name="Cartago"/>
  <title>Heredia</title>
  <path  class='blink blink-two provincia heredia' stroke-width="2" d="m525.77925,124.41495l0.6,0.5l2.5,0.7l0.7,0.3l1,0.7l1.1,1l0.9,1l0.6,1.1l0.1,1.5l-0.6,4.5l0.2,1.9l1.5,1.6l0.8,0.7l1.9,1.2l0.8,0.7l1,1.3l-0.2,0.6l-1,-0.3l-1.6,-0.1l-2.3,0.6l-6.4,0.6l-1.3,0.2l-2.3,0.8l-3.7,2.4l-2.2,2.4l-0.8,0.6l-2.1,1.1l-1.9,1.3l-1.2,1.1l-0.4,1.3l-0.2,2l-0.3,6.8l0.1,2.1l-1.2,9.6l0,1.3l0.2,0.5l1,1.3l0.6,1l0.1,1.4l-0.3,1.8l0.2,1.4l0.9,2.2l0.1,1.7l-1.2,4.7l-2,3l-0.9,0.9l-0.9,0.7l-1.2,0.2l-0.5,0.2l-0.4,0.5l-1.8,3.4l-0.6,1l-0.8,1.6l-0.3,2.2l0.5,3.3l0.3,0.8l2.9,5.5l0.7,2.4l0.4,1.1l1.5,2.3l0.1,1.1l-0.2,1.6l-0.7,3.1l-0.2,2.7l0.1,0.7l-0.3,1.2l-0.6,1.6l-2.7,5.7l-0.6,1.1l-10.4,11.1l-8.1,0.8l-4.2,5.5l-1.3,1.4l-1.1,0.4l-4.8,0.4l-4.3,0.9l-9.6,0.7l-1.1,0.4l0.1,1.2l0.8,1.7l5,7.5l2.9,3.2l0.6,1.7l0.4,5.4l1.8,1.9l1,1l0.7,0.8l0.2,1.6l-1.3,4.4l-2.7,7.4l-4.3,2.5l-5.8,1.9l-2.2,0.4l-5.7,-0.4l-1,0l-8,3.7l-2.6,-1.1l-4.3,-2.2l-3.8,0.7l-0.4,-2l0,-1.2l0.2,-1.2l1.1,-1.8l4,-4.3l0,-0.5l2.6,-33.8l0.3,-30.6l0.4,-25.4l0.4,-35.9l0.6,-47.6l0,-0.9l2,0.3l2.6,-0.5l4.1,4l2.5,1l2.5,-1.9l1.5,0l2.7,2.6l5.4,-3.5l3.7,0.9l2.6,-2.6l3,-0.5l2.4,1.6l1,3.8l13.2,10.5l1.5,0.7l2,0.3l2.2,-0.4l3,-2.1l1.5,-0.5l6,1.2l0.8,-0.5l4.5,-5.3l14.5,-5.5l1.2,-0.3z" id="CRI1328" name="Heredia"/>

  <path class='provincia limon' stroke-width="2" d="m706.37925,503.31495l-2.2,-1.8l-0.7,-0.5l-3.6,-1.1l-3.7,-3.7l-1.1,-1.7l-1.4,-3.8l-1.1,-1.9l-0.9,-0.5l-1.4,-0.7l-7.6,-2.1l-1.2,-0.9l-0.7,-1.2l-0.3,-0.8l-2.4,-11.9l-0.8,-2.2l-0.8,-1.4l-0.8,-0.7l-7.9,-4.5l-0.8,-0.6l-1.6,-1.5l-8.6,-11.2l-0.9,-0.2l-1.5,-0.2l-4.7,0.4l-3,0.5l-0.8,0l-1.1,-0.2l-1.6,-0.5l-3.4,-1.7l-2.1,-1.4l-1,-0.6l-4.1,-1.3l-2.1,-1.1l-4.1,-3.5l-0.9,-0.7l-1.1,-0.5l-0.7,0l-0.9,0.1l-1.7,0.9l-0.8,0.5l-0.5,0.6l-2.6,3.6l-0.3,0.4l-1,0.3l-4.1,0.4l-1.2,0.2l-0.8,0.4l-0.8,0.8l-0.9,0.7l-1,-0.2l-0.5,-1.7l-0.3,-1.3l-1.5,-1.2l-5.8,-1.6l-2.7,-2l-0.7,-0.7l-1.9,-2.6l-7.3,-20l-0.7,-2.4l-1.4,-2.9l-1.6,-2.1l-1.3,-3l-0.5,-2.7l-0.5,-2.1l0.8,-6.8l3,-6.3l12.7,-15.2l4.9,-12.6l1.8,-2.7l6.6,-8.1l9.3,-11.7l1.5,-3.8l-0.6,-4.1l-2.5,-7.9l-0.3,-4.9l0.7,-3.9l1.7,-3.6l2.7,-4l0.5,-0.9l-4.4,-0.9l-23.2,-0.5l-31.6,-0.2l-5.7,-2.1l-21.5,-10.1l-13.2,-6.3l-9.6,-4.5l-27.4,-12.4l2.9,-10.1l1.5,-1.9l1.9,-2l10.4,-11.1l0.6,-1.1l2.7,-5.7l0.6,-1.6l0.3,-1.2l-0.1,-0.7l0.2,-2.7l0.7,-3.1l0.2,-1.6l-0.1,-1.1l-1.5,-2.3l-0.4,-1.1l-0.7,-2.4l-2.9,-5.5l-0.3,-0.8l-0.5,-3.3l0.3,-2.2l0.8,-1.6l0.6,-1l1.8,-3.4l0.4,-0.5l0.5,-0.2l1.2,-0.2l0.9,-0.7l0.9,-0.9l2,-3l1.2,-4.7l-0.1,-1.7l-0.9,-2.2l-0.2,-1.4l0.3,-1.8l-0.1,-1.4l-0.6,-1l-1,-1.3l-0.2,-0.5l0,-1.3l1.2,-9.6l-0.1,-2.1l0.3,-6.8l0.2,-2l0.4,-1.3l1.2,-1.1l1.9,-1.3l2.1,-1.1l0.8,-0.6l2.2,-2.4l3.7,-2.4l2.3,-0.8l1.3,-0.2l6.4,-0.6l2.3,-0.6l1.6,0.1l1,0.3l0.2,-0.6l-1,-1.3l-0.8,-0.7l-1.9,-1.2l-0.8,-0.7l-1.5,-1.6l-0.2,-1.9l0.6,-4.5l-0.1,-1.5l-0.6,-1.1l-0.9,-1l-1.1,-1l-1,-0.7l-0.7,-0.3l-2.5,-0.7l-0.6,-0.5l14.3,-3.5l7.7,-3.9l0.7,-6.1l-2,-7.9l-0.2,-9.6l0.1,-1.1l-0.3,-1.1l1.6,-1.2l1.3,0.3l1.4,0l1.5,0.1l4.4,5.2l5.6,10.3l4,11l-0.5,7l-3.2,-4l-5.8,-14.2l3.7,17.8l-0.3,7.2l-6.4,5.4l3.4,-0.6l2.2,-1.6l2.2,-1.9l2.8,-1.8l-1,1.1l-0.2,1.4l0.4,1.6l0.8,1.8l0.9,-2.6l0.9,-5.1l1.2,-2.8l10.7,29.5l13.3,31.5l15.7,26.4l41.8,55l3.3,2.6l14,17.1l8.6,8.6l5.2,-2.9l2,1.2l5.8,1.1l1.2,1.7l0.2,4.1l0.7,3.5l1.6,3.1l2.8,2.9l10.2,15.2l3.3,2.4l12.6,17.1l9.5,9l5.6,-1.7l1.3,3.5l1.2,9l2,4.1l3.4,2.6l14.7,5.1l5.2,0.5l5.2,-0.1l4.8,0.4l4.3,2.2l5.4,8.3l3.9,2.4l2.4,8.4l-1.7,0.1l-3.3,-1.8l-3.4,-0.6l-1.5,2.4l-1,8.6l-1.4,2.8l-2.9,0.5l-4.1,-0.7l-3.8,-1.2l-2.1,-1l-2.4,-2.6l-2.8,-5.4l-2.2,-2.5l-1.8,0.8l-2.1,-0.8l-9.1,-7.8l-12.7,-5.1l-4.1,0.5l-4,3.5l-2.5,3.5l-0.4,2l2.6,4.8l1.5,6.1l1,1.2l1.4,0.5l1,0.6l-0.3,1.8l-3.3,1.9l-11.7,1.6l-4.1,1.5l-1.8,3.1l-0.6,4.2l1.1,81.4z" id="CRI1329" name="Limón"/>
  <path class='provincia heredia' stroke-width="2" d="m500.3781,587.1161l-1.7,0.7l-2.7,-0.5l-1.3,-1.2l2.8,-1.5l3.2,-0.1c-0.1,0.86667 -0.2,1.73333 -0.3,2.6zm-297.7,-227.1l0.5,-0.6l2.3,-1.1l1.4,-2.9l1.2,-0.9l0.6,-0.6l0.4,-0.9l0.7,-2l0.9,-1.6l1.2,-1l0.1,-0.9l-0.6,-0.7l-0.3,-1l0.1,-1.3l2.2,-8.6l0.9,-2.2l0.6,-1.4l-0.1,-0.6l-0.4,-0.4l-3.2,-0.7l-1,-0.6l-0.3,-0.4l-0.3,-1.3l-0.2,-1.3l-0.5,-1l-1.1,-2l-1.2,-1.1l-0.9,-1.3l-1,-0.6l-1.7,-0.6l-1.4,-0.8l-1.3,-0.3l-2,0l-1.2,-0.3l-1.5,-0.8l-1.9,-0.4l-1.4,0l-2.1,0.3l-0.9,-0.2l-0.9,-0.4l-0.8,-0.8l-0.8,-1l-0.4,-1.3l1,-1.7l2,-1.9l5.4,-2.6l2.3,-0.7l1.4,-0.1l1.2,1.1l0.4,0.2l1.1,-0.3l5.6,-3.3l1.1,-0.5l4.8,-1.1l1.3,-1.8l2.2,-7.2l5,4.4l13.3,5.5l1.7,0.9l1.6,-0.6l3.5,1.4l8.4,4.9l3.9,1.3l4.2,0.1l4,-1.7l2.5,2.1l5.6,3.5l2.5,2.1l0,1.4l-4.4,1.1l0.2,3.2l2.6,3.7l2.9,2.8l-1.8,0.6l-1.6,1.2l-2.7,2.7l3.2,1.5l3.9,0.4l7.9,-0.2l0,1.4l-3.1,2.1l-3.9,1.6l-3.4,2.3l-1.5,3.9l-0.8,0.9l-5.2,3l-0.9,1.6l-1.1,4.1l-0.9,1.7l-6.9,-3.4l-3.7,-0.3l-1.5,3l0.9,1.8l3.4,4.3l-0.5,0.8l-7.1,3.5l-1.2,0.3l-0.8,1.2l-5.2,2.6l-1.1,1.8l-4.8,15.3l-2,3.9l-2.6,3.4l-1.6,0l-6.1,-12.7l-18.3,-24.8l0,-0.1zm18.4,-84.3l2.1,1.2l0.9,-0.1l2.2,0.5l1.2,1.1l1.8,0.4l2.3,0l0,1.4l-2.7,0.9l-3.4,0.8l-3.7,0.4l-3.7,-0.5l-3.8,-1.6l-2,-2l-3,-5.6l4.1,-1.4l1.8,-0.2l7,1.2l6.5,2l0,1.5l-7.6,0zm123.8,63.7l2.1,1l1.6,0.8l0.9,0.7l1.2,1.2l1.2,1.8l1.1,2l0.3,2.1l-0.3,1.8l-0.4,0.9l-0.4,0.6l-1,0.5l-1.3,0.3l-4.2,-0.3l-1.9,0.4l-0.9,0.6l-0.5,1l0,1.2l1.7,5.6l0.6,2.7l-0.2,4.3l0.1,0.6l0.5,1.4l4.9,8.5l0.1,0.5l1.5,7.4l0.6,1.7l0.9,2.1l1.4,1.8l1.5,1.5l0.7,0.5l2.3,0.2l6.8,-1.1l1.5,0.7l1.4,0l3.4,-0.9l1.4,0.1l1,0.5l1.4,1.6l1.1,0.5l1.2,-0.1l0.7,-0.3l0.6,-0.5l1.3,-2.7l0.9,-1l2.5,-2l0.8,-0.8l0.6,-1.2l0.2,-1.4l-0.8,-4.4l0,-0.5l0.6,-0.4l1.2,-0.2l2.6,0l5.7,-1.1l9.4,-0.5l3.2,0.3l1.2,1.1l0.8,0.6l1.5,1.8l0.4,0.4l2.3,0.4l7.8,-0.2l2.9,1.2l3.2,0.3l9.8,-0.9l2,0.2l0.5,0.2l0.8,0.6l0.6,1l0.4,1.8l0,1.9l-0.4,1.8l-0.1,1.5l0,0.6l0.4,0.8l0.8,1l1.6,1.5l1.7,0.6l1,0.2l2,-0.3l2.9,-0.1l2,0.3l1.6,0.7l0.5,0.8l0.5,1.3l0.4,2.7l0,1.4l-0.2,0.9l-0.5,1l-0.5,1.1l0.8,1.4l4.8,2.2l3.6,6.9l5,4.9l14.3,9.6l3.4,1.1l0.3,-0.5l0.7,-0.8l1,-0.5l1.2,-0.3l1.3,0.1l0.7,0.5l0.7,0.8l1.6,2.8l0.3,0.9l0.9,4.3l0.2,0.6l7.1,7.2l1.5,1.9l0.8,1.4l-0.3,2.2l0,1.3l0.4,2.5l1.4,4.5l1,2.1l0.6,0.9l0.8,0.9l1.5,1.4l10.9,4.9l1.7,0.5l1.1,-0.3l0.8,-0.7l1.9,-2.7l0.4,-0.3l1.1,-0.5l1.4,-0.3l0.5,0l1.3,0.3l2.1,1l3,2.9l5,6.2l0.8,1.3l0.2,1.2l1.6,5.7l0.8,1.3l1.5,1.8l19.9,12.9l0.5,0.3l2.4,-0.2l1.9,-0.3l1.3,0.1l0.6,0.2l0.9,0.7l1.3,1.5l1,0.6l1.2,0.3l1.1,-0.2l0.8,-0.7l2.4,-3.3l0.8,-0.7l1.6,-1l0.4,-0.4l0.3,-0.8l0.2,-1.2l-0.6,-5.1l0.1,-0.9l0.3,-1.2l1.7,-3.1l0.4,-1.3l-0.1,-2.7l-0.2,-1.2l-1.1,-2.4l-0.4,-0.3l-1.7,0.1l-0.5,-0.2l-1.2,-1.1l-0.4,-0.2l-2,-0.4l-0.7,-0.7l-0.1,-0.6l2.2,-11.2l0.2,-0.6l0.7,-1.1l6,-6.7l1,-2.2l1.5,-5.4l0.7,-1.2l0.5,-0.8l4.8,-5l5.8,1.6l1.5,1.2l0.3,1.3l0.5,1.7l1,0.2l0.9,-0.7l0.8,-0.8l0.8,-0.4l1.2,-0.2l4.1,-0.4l1,-0.3l0.3,-0.4l2.6,-3.6l0.5,-0.6l0.8,-0.5l1.7,-0.9l0.9,-0.1l0.7,0l1.1,0.5l0.9,0.7l4.1,3.5l2.1,1.1l4.1,1.3l1,0.6l2.1,1.4l3.4,1.7l1.6,0.5l1.1,0.2l0.8,0l3,-0.5l4.7,-0.4l1.5,0.2l0.9,0.2l8.6,11.2l1.6,1.5l0.8,0.6l7.9,4.5l0.8,0.7l0.8,1.4l0.8,2.2l2.4,11.9l0.3,0.8l0.7,1.2l1.2,0.9l7.6,2.1l1.4,0.7l0.9,0.5l1.1,1.9l1.4,3.8l1.1,1.7l3.7,3.7l3.6,1.1l0.7,0.5l2.2,1.8l0,2.5l6.6,-2.8l2,0l1.5,1.1l0.8,1.7l0.6,1.8l1,1.3l1.3,0.8l4.9,2.2l10,7.4l10,3.5l3,1.9l5.6,9.6l0.9,2.1l-3.2,5.2l-6.5,4l-22.6,9.3l-2.6,1.8l-2.1,2.9l1,1l1.8,1.1l-0.1,3l-2,2.4l-6.5,4.1l-1.8,1.9l-0.3,3.3l1.1,3.1l2,2.9l6.8,7.8l3.7,5.1l2.7,5.8l1.8,6.7l1.3,15.4l-0.7,7.8l-2,6.6l-4.9,6l-5.7,2.8l-6.2,1.9l-6.3,3.2l-9.7,9.3l-10,5.7l-1.9,1.5l-0.3,2.8l2.1,2.2l6.1,3.6l1.2,1.2l2.1,3.2l1.2,0.9l1.4,0.1l2.6,-1l2,0.2l3.9,2.1l1.5,2.2l1,7.1l11.5,25.3l-1.1,9.9l-1.4,5.1l-2.9,-2.4l0.3,-3.3l1.7,-3.8l0.9,-3.4l-0.6,-2.7l-14.9,-25.7l-5.3,-5.6l-27.2,-19.8l-7.4,-7.4l6.4,-7.9l1.2,-0.6l1.2,-2.3l2.4,-2.9l1.5,-3.4l-1.4,-3.6l-7.1,-9l-1.2,-2.5l-0.2,-3.3l1.6,-1.1l2.7,-0.8l3.5,-2.2l-2.6,-0.8l-6.4,0.3l-3.1,-1.2l-1.7,-1.8l-4.3,-8.6l0.7,-1.2l0.8,-2l1.5,0l2.1,3.6l0.6,1.8l0.3,2.9l0.9,0.5l6.5,-2.6l0,-1.6l-3,-1.3l-3.1,-2.4l-2.7,-2.8l-1.6,-2.6l-1.5,0l-1.7,2.7l-4,0.2l-4.5,-0.6l-3.4,0.7l-1.6,-3l-2.6,-3.1l-3,-1.6l-3.2,1.7l-6.9,-4.1l-2,-3.4l1.3,-4.7l-1.5,-0.1l-1.5,0.1l0.9,-3.6l-3.1,-1.7l-4.6,-1l-3.6,-1.2l-1.3,2.6l-1.2,-0.2l-1.4,-1.1l-2.3,0.1l-1,1.1l-0.3,1.6l-0.9,1.4l-2.9,0.5l-7.3,-1.1l-2.9,1.1l-1.1,4.4l1.6,-1.2l1.4,-0.1l7.7,11.6l1,3.5l4.5,7.1l1.7,2.1l2.9,1.5l8.2,2.5l3.3,0.4l3,1.8l2.9,3.6l2.7,2.3l2.7,-1.6l0.2,5.4l-0.5,2.3l-1.3,1.5l0,1.5l3.3,4.5l1.3,7.8l-0.5,8.1l-2.5,5.5l-4.9,0.1l-8,-2.6l-7.5,-3.6l-3.6,-3l1.3,0l1,0.8l0.8,0.3l3,0.4l-4.2,-1.9l-1.8,-1.1l-1.8,-1.7l0,3.2l-12.6,-5.6l-4.5,-0.6l-13.4,1.6l-3.7,0l-3.2,-1.5l-2.9,-3l-5.4,-6.9l-19,-17.8l-1.2,-2.1l-1,-0.2l-4.5,-1.8l-1.3,-0.9l-0.7,-6.9l6.7,-10.3l1.5,-1.8l3.5,-2.1l2.3,-0.9l1.1,0.7l0.7,1.3l1.5,-1.5l5.3,-8.2l1.5,-1.5l-2.8,-3.6l3.3,-3.9l6,-3.3l5.4,-1.4l0,-1.3l-4.7,-0.6l-2.4,0.2l-1.6,1.3l-2.6,2.8l-2.5,1.2l-0.9,-2.1l1.1,-3.8l3,-3.7l5.5,-2.7l2.5,-1.7l1,-2.5l-1.4,-2.2l-2.8,-1.6l-2.6,-2.1l-0.5,-3.9l4.2,2.2l2,0.6l2.7,0.1l-1.3,-1.6l-1.6,-1.2l-3.2,-1.7l-1.3,-1.1l-0.8,-1.1l-1.2,-0.7l-2.5,-0.1l2.6,-1.7l-0.3,-1.1l-1.6,-0.9l-0.7,-0.8l1,-2.4l1.1,-1.8l1.5,-1.6l2.2,-1.9l-5.8,-15.3l-1.1,-1.9l-3.6,-4l-1.5,1.5l-4.9,-6.4l-4.5,-7.5l-5.7,-5.8l-8.8,-1.6l0.5,-5.7l-4.8,-4.9l-6.6,-3.4l-4.9,-1.3l-17.2,-16.5l-16.9,-7.9l-2.7,-2.1l-21.1,-8.4l-1.4,0l-1.4,1.1l-1.2,0l-1,-1l-0.9,-1.7l-3,1.3l-1.8,-1.5l-2,-2.1l-3.7,-0.6l2.3,-4.1l-3.1,-5.8l-5.7,-5.1l-5.5,-1.8l0,1.5l1.9,0.3l1.3,0.6l2.9,2.1l-5.7,-1l-9,-5.4l-5.8,-1.2l-5.5,-0.4l-29.3,-8.2l-5.6,-0.5l-2.7,0.5l-2.8,0.9l-2.9,0.6l-2.9,-0.5l-2.6,-2.1l-0.9,-2.7l-1,-2.1l-3,-0.7l0.9,1.6l0.5,1.6l-3.7,-2.9l-8.1,-5.3l-1.6,-3.3l-0.7,-3.1l-2,-1.4l-2.4,-1l-2.4,-1.5l-0.7,-2.2l0.3,-2.4l-0.6,-1.5l-3.4,0.2l0.8,-2.5l-0.2,-2.5l-0.6,-2.2l0,-2l1.3,-2.5l3.7,-3.8l1.5,-3.8l1.6,-1.9l1.5,-2.4l0.7,-3.2l-0.7,-2.6l-1.7,-2.3l-3.5,-3.5l-8.8,-13.2l-2.5,-2l-3.6,-1.5l0.5,-3.4l3.1,-5.1l-5.4,-4.4l-1,-2.2l1.2,-3.3l-6.3,-1.9l-19.4,1.9l0,-1.6l2.7,-1.1l3.4,-0.4l7.6,0.1l0,-1.5l-7,-0.4l-6.2,-1.1l-5.7,-1.9l-5.2,-2.8l-6.6,-5.6l-1,-1.1l-1.4,-0.4l-2.8,-1.9l-1.9,-2.1l1,-1l-3.7,-1.9l-8.9,-8.4l-4.8,-2.4l-2.3,-2.1l-1.4,-0.5l-1.1,0.5l-0.9,0.8l-1.3,0.2l-1.9,-1.5l1.3,-2.4l0.4,-1.5l4.4,-1.3l1.8,0l1.4,0.1l3.2,-0.4l1,0.4l1.3,1l1.1,0.4l0.9,-0.1l1.1,-0.4l0.9,-0.1l1.4,0.2l1,0.4l2.1,1.1l2,1.7l2.7,3.4l0.8,0.8l1.7,1.4l2.1,1l1.1,0.4l0.5,-0.1l0.4,-0.3l-0.1,-0.9l-0.9,-2.4l-0.2,-1.2l0.2,-2.1l0.6,-1l1,-1.2l4,-3.5l0.9,-0.7l4.2,-1.8l0.9,-1.3l0.1,-1.7l-0.2,-0.8l-0.3,-0.6l-1,-1.3l-0.4,-1l0.3,-1.4l1.3,-2.8l0.2,-0.7l0.5,-4.3l1,-2.9l0.1,-0.6l-0.2,-1.2l-0.3,-0.4l-1.6,-1.5l-0.6,-0.9l-0.1,-1.3l0.1,-0.6l1,-1.7l1,-1l1.3,-0.9l2,-1l0.8,-0.7l1.9,-2l1.3,-0.9l1.7,-0.5l1.6,0l1.1,0l1.3,0.4l0.9,0.5l3.4,2.8l5,7.8l1.4,1.7l1.8,1.3l1.2,0.1l1.8,-0.1l4.2,-0.8l3,-0.8l1.4,-0.9l1.1,-0.4l1.7,0.2l3.9,2.6l1.2,3.4l0.9,1.3l1.6,1.4l0.1,0.8l-0.2,1.2l-2.3,4.2l-0.7,1.7l-1.3,4.9l0.2,1.8l1.2,2.2l0.3,2.1l-0.8,5.6l1,3.5l2.4,5.1l1.3,2l3.6,4.4l1.8,2.9l3.6,4.3l1.3,2.2l0.7,1.5l1.2,0.2l1.6,-0.5l1.8,-1.3l0.5,-0.3l1.6,0.8l2.8,4.6l-0.2,1.6l-0.2,0.5l-0.7,0.7l-1.1,0.6l-3.4,1.3l-10.8,7.1l-2.4,0.7l-1.7,1.7l-4.1,6.4l-1.5,0.7l-0.8,0.8l-0.1,0.6l0.1,1.3l-0.4,1.2l0.8,0.8l1.5,1.1l4.6,1.8l3.6,1l2.8,0.2l2.7,0.5l1.9,1.5l2.8,8z" id="CRI1330" name="Puntarenas" stroke="null"/>
  <path class='provincia sanjose' stroke-width="2" d="m486.57925,266.51495l3,10.5l0.5,0.9l0.9,1l1.9,1.7l1.8,1.3l1.5,0.9l4.4,5l0.8,1.2l0.6,2l0.4,5.8l1,4.9l-0.5,1.8l-0.7,0.9l-0.8,0.7l-1.2,0.4l-2.7,0.3l-2.7,3.1l-1.6,0.4l-1.1,-0.5l-2,-0.3l-5.8,0.1l-0.2,0.1l-10.1,3.6l-5.8,9.6l-0.3,1.8l1.2,0.8l4.3,1.9l-6.3,10.3l-1.6,1.7l-2.7,1.9l-3.9,3.5l-1.4,2.4l-0.7,1.4l-0.2,1l0.2,1.3l0.5,1l0.5,0.2l1.3,0l2.6,-1l1.8,-0.5l0.6,-0.1l1.3,0.2l1.3,0.3l8.1,-1.8l1.8,0.3l0.5,2.1l0.8,2.2l1.5,2.7l4.2,1.4l1.2,1l0.2,1l2,3.3l4.8,6.3l1.2,1.1l0.6,0.1l2.7,1l4.5,2.2l1.1,0.3l1.6,-0.8l0.9,-0.2l1.8,0.2l0.9,0.4l1,0.8l1.6,2.8l1.5,3.1l0.6,1.6l0.9,1.8l1.1,1.7l0.8,0.9l0.6,0.5l0.6,0.2l4.8,1l1.1,0l4.2,-0.5l2.4,3.4l1.7,1.2l3.3,1.1l1,0.6l0.6,0.6l0.2,0.5l0.7,2.4l0.5,2.9l0.8,0.4l3,-1.5l1.8,-0.5l2.5,0.2l1.4,-0.1l1.7,-0.6l1.1,-1.1l1.1,-2l0.9,-1l2.6,-0.8l5.6,5.9l1.9,1.6l2.1,1l0.6,0.2l23,14.1l7.3,20l1.9,2.6l0.7,0.7l2.7,2l-4.8,5l-0.5,0.8l-0.7,1.2l-1.5,5.4l-1,2.2l-6,6.7l-0.7,1.1l-0.2,0.6l-2.2,11.2l0.1,0.6l0.7,0.7l2,0.4l0.4,0.2l1.2,1.1l0.5,0.2l1.7,-0.1l0.4,0.3l1.1,2.4l0.2,1.2l0.1,2.7l-0.4,1.3l-1.7,3.1l-0.3,1.2l-0.1,0.9l0.6,5.1l-0.2,1.2l-0.3,0.8l-0.4,0.4l-1.6,1l-0.8,0.7l-2.4,3.3l-0.8,0.7l-1.1,0.2l-1.2,-0.3l-1,-0.6l-1.3,-1.5l-0.9,-0.7l-0.6,-0.2l-1.3,-0.1l-1.9,0.3l-2.4,0.2l-0.5,-0.3l-19.9,-12.9l-1.5,-1.8l-0.8,-1.3l-1.6,-5.7l-0.2,-1.2l-0.8,-1.3l-5,-6.2l-3,-2.9l-2.1,-1l-1.3,-0.3l-0.5,0l-1.4,0.3l-1.1,0.5l-0.4,0.3l-1.9,2.7l-0.8,0.7l-1.1,0.3l-1.7,-0.5l-10.9,-4.9l-1.5,-1.4l-0.8,-0.9l-0.6,-0.9l-1,-2.1l-1.4,-4.5l-0.4,-2.5l0,-1.3l0.3,-2.2l-0.8,-1.4l-1.5,-1.9l-7.1,-7.2l-0.2,-0.6l-0.9,-4.3l-0.3,-0.9l-1.6,-2.8l-0.7,-0.8l-0.7,-0.5l-1.3,-0.1l-1.2,0.3l-1,0.5l-0.7,0.8l-0.3,0.5l-3.4,-1.1l-14.3,-9.6l-5,-4.9l-3.6,-6.9l-4.8,-2.2l-0.8,-1.4l0.5,-1.1l0.5,-1l0.2,-0.9l0,-1.4l-0.4,-2.7l-0.5,-1.3l-0.5,-0.8l-1.6,-0.7l-2,-0.3l-2.9,0.1l-2,0.3l-1,-0.2l-1.7,-0.6l-1.6,-1.5l-0.8,-1l-0.4,-0.8l0,-0.6l0.1,-1.5l0.4,-1.8l0,-1.9l-0.4,-1.8l-0.6,-1l-0.8,-0.6l-0.5,-0.2l-2,-0.2l-9.8,0.9l-3.2,-0.3l-2.9,-1.2l-7.8,0.2l-2.3,-0.4l-0.4,-0.4l-1.5,-1.8l-0.8,-0.6l-1.2,-1.1l-3.2,-0.3l-9.4,0.5l-5.7,1.1l-2.6,0l-1.2,0.2l-0.6,0.4l0,0.5l0.8,4.4l-0.2,1.4l-0.6,1.2l-0.8,0.8l-2.5,2l-0.9,1l-1.3,2.7l-0.6,0.5l-0.7,0.3l-1.2,0.1l-1.1,-0.5l-1.4,-1.6l-1,-0.5l-1.4,-0.1l-3.4,0.9l-1.4,0l-1.5,-0.7l-6.8,1.1l-2.3,-0.2l-0.7,-0.5l-1.5,-1.5l-1.4,-1.8l-0.9,-2.1l-0.6,-1.7l-1.5,-7.4l-0.1,-0.5l-4.9,-8.5l-0.5,-1.4l-0.1,-0.6l0.2,-4.3l-0.6,-2.7l-1.7,-5.6l0,-1.2l0.5,-1l0.9,-0.6l1.9,-0.4l4.2,0.3l1.3,-0.3l1,-0.5l0.4,-0.6l0.4,-0.9l0.3,-1.8l-0.3,-2.1l-1.1,-2l-1.2,-1.8l-1.2,-1.2l-0.9,-0.7l-1.6,-0.8l-2.1,-1l2,-1.6l1.6,0l0.3,-0.4l0.3,-1.7l0.4,-0.9l4,-5l0.1,-1.3l0.6,-0.8l1.5,-1.1l3.7,-2l2.6,-2.5l0.5,-0.8l1.7,-1.1l6.8,-3l9.7,-0.8l5.4,-1.1l4.2,1.2l4.4,0.8l1.9,0.5l2.6,0.3l1.1,0.4l3.9,-0.6l14.7,-4.1l6.1,-2l3.2,-3.5l3.8,-0.7l4.3,2.2l2.6,1.1l8,-3.7l1,0l5.7,0.4l2.2,-0.4l5.8,-1.9l4.3,-2.5l2.7,-7.4l1.3,-4.4l-0.2,-1.6l-0.7,-0.8l-1,-1l-1.8,-1.9l-0.4,-5.4l-0.6,-1.7l-2.9,-3.2l-5,-7.5l-0.8,-1.7l-0.1,-1.2l1.1,-0.4l9.6,-0.7l4.3,-0.9l4.8,-0.4l1.1,-0.4l1.3,-1.4l4.2,-5.5l8.1,-0.8l-1.9,2l-1.5,1.9l-2.9,10.1z" id="CRI1331" name="San José"/>
  <path class='provincia alajuela' stroke-width="2" d="m439.37925,121.11495l0,0.9l-0.6,47.6l-0.4,35.9l-0.4,25.4l-0.3,30.6l-2.6,33.8l0,0.5l-4,4.3l-1.1,1.8l-0.2,1.2l0,1.2l0.4,2l-3.2,3.5l-6.1,2l-14.7,4.1l-3.9,0.6l-1.1,-0.4l-2.6,-0.3l-1.9,-0.5l-4.4,-0.8l-4.2,-1.2l-5.4,1.1l-9.7,0.8l-6.8,3l-1.7,1.1l-0.5,0.8l-2.6,2.5l-3.7,2l-1.5,1.1l-0.6,0.8l-0.1,1.3l-4,5l-0.4,0.9l-0.3,1.7l-0.3,0.4l-1.6,0l-4.8,-6.4l-1.9,-1.5l-2.7,-0.5l-2.8,-0.2l-3.6,-1l-4.6,-1.8l-1.5,-1.1l-0.8,-0.8l0.4,-1.2l-0.1,-1.3l0.1,-0.6l0.8,-0.8l1.5,-0.7l4.1,-6.4l1.7,-1.7l2.4,-0.7l10.8,-7.1l3.4,-1.3l1.1,-0.6l0.7,-0.7l0.2,-0.5l0.2,-1.6l-2.8,-4.6l-1.6,-0.8l-0.5,0.3l-1.8,1.3l-1.6,0.5l-1.2,-0.2l-0.7,-1.5l-1.3,-2.2l-3.6,-4.3l-1.8,-2.9l-3.6,-4.4l-1.3,-2l-2.4,-5.1l-1,-3.5l0.8,-5.6l-0.3,-2.1l-1.2,-2.2l-0.2,-1.8l1.3,-4.9l0.7,-1.7l2.3,-4.2l0.2,-1.2l-0.1,-0.8l-1.6,-1.4l-0.9,-1.3l-1.2,-3.4l-3.9,-2.6l-1.7,-0.2l-1.1,0.4l-1.4,0.9l-3,0.8l-4.2,0.8l-1.8,0.1l-1.2,-0.1l-1.8,-1.3l-1.4,-1.7l-5,-7.8l3.6,-6.7l0.3,-2.3l-0.8,-1.4l-0.6,-1.5l-0.9,-4.1l3.4,-12.3l-4.8,-9.6l-1.6,-2.5l-12.5,-9.7l-4,-2l-12,-3.2l-3.1,-1.2l-2.3,-2.6l-5.9,-5.3l-0.7,-0.8l-1.2,-1.9l-0.7,-1.6l-1,-6l-2.5,-4.5l-3.1,-4.9l-1.3,-1.5l-1.4,-0.9l-3,-1.3l-2.4,-0.7l-11.7,-2.8l-3.4,-1.1l-1.3,-1l-1.7,-1.6l-6.5,-4.4l-1.7,-0.9l-1.2,-0.5l-1.4,-0.1l-1.5,0l-2.7,0.3l-4.8,1.2l-5.7,0.6l-6.5,-0.3l-5.4,-10.7l-2,-2.9l-1.4,-1.1l-1.1,-0.4l-5,-0.6l-1.3,-0.5l-5.3,-3.1l-2.5,-1.9l-10,-11.6l-0.7,-1.3l0,-1.1l0.8,-1l7.5,-0.6l2,-0.8l0.6,-1.1l0.5,-0.9l17.2,-11.8l10.4,-11.9l0.9,-0.6l1.4,-0.3l1.3,-0.4l1.7,-0.4l0.5,-0.5l31.5,11.7l35.3,13.2l5.1,0.5l5.1,-1.8l38.8,-25.8l6.9,-1.6l3.9,1.7l8.3,6l3.8,0.6l4.8,-0.3l5,1.6l10.9,4.9l1.2,0.3l1.2,0.4l1,0.6l0.9,0.7l5,6.2l1.9,1.6l2,1.1l2.3,1l2.4,0.2l2.1,-0.9l11.8,-7.7l1.8,-1.1l2.1,1l0.5,1.7l0,2.3l0.4,2.7l1,1.7l2.9,3.6l0.6,1.6l2.3,2.2l10.2,3.9l2.3,1.6l2,2.2l4.2,2.1l3.8,3.2l0.8,5.4l-3.1,1.6l-0.9,0.6l-1,1.7l0.5,1.3l0.8,0.9l0.5,0.8l4.9,3.9l1.1,1.5l2.5,-1.8l3.4,0.1l1.5,0.2z" id="CRI1333" name="Alajuela"/>
  <path class='provincia guanacaste' stroke-width="2" d="m203.07925,62.01495l-0.5,0.5l-1.7,0.4l-1.3,0.4l-1.4,0.3l-0.9,0.6l-10.4,11.9l-17.2,11.8l-0.5,0.9l-0.6,1.1l-2,0.8l-7.5,0.6l-0.8,1l0,1.1l0.7,1.3l10,11.6l2.5,1.9l5.3,3.1l1.3,0.5l5,0.6l1.1,0.4l1.4,1.1l2,2.9l5.4,10.7l6.5,0.3l5.7,-0.6l4.8,-1.2l2.7,-0.3l1.5,0l1.4,0.1l1.2,0.5l1.7,0.9l6.5,4.4l1.7,1.6l1.3,1l3.4,1.1l11.7,2.8l2.4,0.7l3,1.3l1.4,0.9l1.3,1.5l3.1,4.9l2.5,4.5l1,6l0.7,1.6l1.2,1.9l0.7,0.8l5.9,5.3l2.3,2.6l3.1,1.2l12,3.2l4,2l12.5,9.7l1.6,2.5l4.8,9.6l-3.4,12.3l0.9,4.1l0.6,1.5l0.8,1.4l-0.3,2.3l-3.6,6.7l-3.4,-2.8l-0.9,-0.5l-1.3,-0.4l-1.1,0l-1.6,0l-1.7,0.5l-1.3,0.9l-1.9,2l-0.8,0.7l-2,1l-1.3,0.9l-1,1l-1,1.7l-0.1,0.6l0.1,1.3l0.6,0.9l1.6,1.5l0.3,0.4l0.2,1.2l-0.1,0.6l-1,2.9l-0.5,4.3l-0.2,0.7l-1.3,2.8l-0.3,1.4l0.4,1l1,1.3l0.3,0.6l0.2,0.8l-0.1,1.7l-0.9,1.3l-4.2,1.8l-0.9,0.7l-4,3.5l-1,1.2l-0.6,1l-0.2,2.1l0.2,1.2l0.9,2.4l0.1,0.9l-0.4,0.3l-0.5,0.1l-1.1,-0.4l-2.1,-1l-1.7,-1.4l-0.8,-0.8l-2.7,-3.4l-2,-1.7l-2.1,-1.1l-1,-0.4l-1.4,-0.2l-0.9,0.1l-1.1,0.4l-0.9,0.1l-1.1,-0.4l-1.3,-1l-1,-0.4l-3.2,0.4l-1.4,-0.1l-1.8,0l-4.4,1.3l-1,-0.7l-0.8,-0.4l-2.9,-2.6l-3.9,1.3l-14.9,0.2l-3.9,-1l-3.5,-2.5l-5.5,-5.7l0,-1.4l1.3,-4.1l-3.9,-4.7l-9.4,-6.6l1.4,4.5l6.3,4.7l1.5,5.4l0.5,10.4l1.4,6l2.5,4.1l-2.8,1.9l0.4,3.1l2.6,2.9l6.7,2.3l2.4,2.6l2.8,5.6l1.4,0l1.8,-0.7l0.7,0.6l0.4,1.5l-1.9,0.1l-2,-0.2l-1.9,-0.6l-1.6,-0.7l0,1.4l4.1,3.7l-2.2,7.2l-1.3,1.8l-4.8,1.1l-1.1,0.5l-5.6,3.3l-1.1,0.3l-0.4,-0.2l-1.2,-1.1l-1.4,0.1l-2.3,0.7l-5.4,2.6l-2,1.9l-1,1.7l0.4,1.3l0.8,1l0.8,0.8l0.9,0.4l0.9,0.2l2.1,-0.3l1.4,0l1.9,0.4l1.5,0.8l1.2,0.3l2,0l1.3,0.3l1.4,0.8l1.7,0.6l1,0.6l0.9,1.3l1.2,1.1l1.1,2l0.5,1l0.2,1.3l0.3,1.3l0.3,0.4l1,0.6l3.2,0.7l0.4,0.4l0.1,0.6l-0.6,1.4l-0.9,2.2l-2.2,8.6l-0.1,1.3l0.3,1l0.6,0.7l-0.1,0.9l-1.2,1l-0.9,1.6l-0.7,2l-0.4,0.9l-0.6,0.6l-1.2,0.9l-1.4,2.9l-2.3,1.1l-0.5,0.6l-1.2,-2.8l-0.9,-1l-2,-1.3l-5.5,-2.3l-0.5,-1.8l0.1,-2l-0.2,-1.5l-5.2,-5.8l-7.2,-4.1l-23.6,-8.5l-2.1,0.5l-3.1,2.2l-1.5,0.5l-2.1,-0.5l-2.9,-2.2l-2.5,-0.5l-1.4,-0.1l-0.5,-0.4l-0.2,-0.6l-0.8,-1l-1.6,-0.7l-1.2,0.3l-0.9,0.7l-0.1,0.4l-12.4,-4l-6,-0.9l-1.4,-0.9l-1.1,-1l-1.7,-0.9l-2.5,0.1l-1.6,1l-1.4,0.1l-2,-2.6l1.6,-4.1l-2.3,-5.6l-22.5,-27.7l-1.3,-2.5l-1.8,-5.9l-2.7,-4.2l-8.5,-21.1l-0.8,-6.3l-0.9,-3.8l-1.3,-2.8l3,-3l1.2,-2.1l-0.4,-1.8l-4.7,-6l-2.9,-1.8l1.6,-2.2l3.8,-3l2.6,-3.8l1.8,-3.7l3.7,1.5l2,-2.3l1.6,-3.5l4.7,-3.5l-1.8,-4l-3.3,-4.2l-2.3,-2.4l1.9,-1.2l1.1,-0.3l0,-1.5l-3,0l0,-1.5l2.5,-0.5l1.6,-1.6l1.9,-4.2l1.5,0l3,2.5l4.3,-1.8l4.4,-2.4l3.3,0.4l1.4,0l-0.3,-3l0.8,-1.4l1.2,-0.7l1.2,-1l2,-3.5l0.8,0.2l2.7,0.2l6.6,-6.9l-0.5,-1.8l-1.2,-1.5l-2.8,-1.9l-9,9.1l-0.2,-0.8l0,-0.6l-0.2,-0.4l-1.1,0.1l0,-1.4l2.5,-2.7l1.6,-1.2l1.9,-0.6l-1.5,-1.5l-0.9,1.1l-0.7,0.4l0.5,-1.9l0.1,-0.6l2.5,-0.7l0,-1.4l-1.5,0l0,-1.7l3.7,-2.9l0.7,-7.6l-1.3,-14.7l-3.3,-3.9l-7.2,-3.2l-7.3,-1.2l-3.3,2.3l-1.3,0l-6,-5.1l-1.8,-1.9l1.1,0.4l1.3,-0.6l0.5,-1.3l-1.2,-1.5l-1.6,-0.4l-4.3,0.4l-1.7,0l-6.5,-2.5l-5.1,-2.9l-5.6,-2.6l-8.3,-1l0,-1.7l5,-1.2l9.3,-4.3l5.2,-0.6l-0.9,-1.4l-0.6,-0.8l-1,-0.5l-2,-0.3l0,-1.5l10.8,-0.7l2.8,0.7l1.1,1.7l-0.3,2l-0.5,1.6l0.4,0.7l0.9,0.5l2.9,2.6l1.3,0l1.7,-1.7l0,-1.4l-2.5,-2.4l2.4,-1.6l4.6,-0.7l4.4,0.2l1.5,0.7l2,1.9l1.8,0.4l1.4,-0.5l0.6,-1.3l-0.2,-1.5l-1.1,-1.2l0,-1.7l3.3,-1.2l0.9,-2.5l-0.8,-2.9l-1.8,-2.6l-1.5,-1.1l-3.7,-1.6l-1.6,-1.1l-1.9,-1.9l0,-0.6l1.1,-0.2l1.5,-1.1l3.4,-3.1l1.9,1.1l2.3,2.1l4.4,-0.1l2.6,-2.4l-0.5,-3.3l-2.4,-3.1l-2.7,-2l-1.9,-0.8l5.3,-8.6l4,-8.8l6.2,-8.3l7.3,-3.1l6.3,3.3l6.2,5.5l7.1,4l22.1,8.3l37.5,13.9z" id="CRI1334" name="Guanacaste"/>
  <circle r="0" cx="426.17925" cy="394.11495" id="0"/>
  <circle r="0" cx="537.37925" cy="428.41495" id="1"/>
  <circle r="0" cx="767.41145" cy="550.3138" id="2"/>
 </g>

</svg>
